<svg width="100" height="150" viewBox="0 0 100 150" fill="none" xmlns="http://www.w3.org/2000/svg">
<circle cx="50" cy="50" r="50" fill="#A2B6F6"/>
<path d="M51.7321 147C50.9622 148.333 49.0378 148.333 48.2679 147L8.43078 78C7.66098 76.6667 8.62323 75 10.1628 75L89.8372 75C91.3768 75 92.339 76.6667 91.5692 78L51.7321 147Z" fill="#A2B6F6"/>
<circle cx="49.5" cy="50.5" r="42.5" fill="white"/>
<path d="M31.5 37.375C31.5 32.1973 35.6973 28 40.875 28H59.625C64.8026 28 69 32.1973 69 37.375V43.1875C73.2791 44.0562 76.5 47.8394 76.5 52.375V71.125C76.5 72.1604 75.6604 73 74.625 73C73.5896 73 72.75 72.1604 72.75 71.125V61.75H27.75V71.125C27.75 72.1604 26.9105 73 25.875 73C24.8395 73 24 72.1604 24 71.125V52.375C24 47.8394 27.2208 44.0562 31.5 43.1875V37.375ZM27.75 58H72.75V52.375C72.75 49.2684 70.2315 46.75 67.125 46.75H33.375C30.2684 46.75 27.75 49.2684 27.75 52.375V58ZM65.25 37.375C65.25 34.2684 62.7315 31.75 59.625 31.75H40.875C37.7684 31.75 35.25 34.2684 35.25 37.375V43H39V41.125C39 40.0895 39.8395 39.25 40.875 39.25H46.5C47.5355 39.25 48.375 40.0895 48.375 41.125V43H52.125V41.125C52.125 40.0895 52.9645 39.25 54 39.25H59.625C60.6604 39.25 61.5 40.0895 61.5 41.125V43H65.25V37.375Z" fill="#A2B6F6"/>
</svg>
