<svg width="33" height="33" viewBox="0 0 33 33" fill="none" xmlns="http://www.w3.org/2000/svg">
<path d="M9.86027 12.6666L7.37044 11.2291L8.77354 16.4656L14.01 15.0625L11.5201 13.625C13.1062 10.8779 16.6277 9.93427 19.3748 11.5203C20.213 12.0043 20.89 12.6718 21.3632 13.4429L23.2745 12.9308C22.6274 11.6941 21.6361 10.6127 20.3331 9.86043C16.6648 7.74251 11.9782 8.99829 9.86027 12.6666ZM21.4794 19.375C19.8934 22.1221 16.3719 23.0656 13.6248 21.4796C12.7866 20.9956 12.1096 20.3282 11.6364 19.557L9.72508 20.0691C10.3722 21.3058 11.3635 22.3872 12.6665 23.1395C16.3348 25.2574 21.0214 24.0016 23.1393 20.3333L25.6291 21.7708L24.226 16.5344L18.9896 17.9375L21.4794 19.375Z" fill="black"/>
</svg>
