<svg width="15" height="15" viewBox="0 0 15 15" fill="none" xmlns="http://www.w3.org/2000/svg">
<path d="M9.375 15H0.625C0.25 15 0 14.75 0 14.375V0.625C0 0.25 0.25 0 0.625 0H9.375C9.75 0 10 0.25 10 0.625V5C10 5.375 9.75 5.625 9.375 5.625C9 5.625 8.75 5.375 8.75 5V1.25H1.25V13.75H8.75V10C8.75 9.625 9 9.375 9.375 9.375C9.75 9.375 10 9.625 10 10V14.375C10 14.75 9.75 15 9.375 15Z" fill="#efefef"/>
<path d="M14.375 8.125H5C4.625 8.125 4.375 7.875 4.375 7.5C4.375 7.125 4.625 6.875 5 6.875H14.375C14.75 6.875 15 7.125 15 7.5C15 7.875 14.75 8.125 14.375 8.125Z" fill="#efefef"/>
<path d="M14.375 8.125C14.1875 8.125 14.0625 8.0625 13.9375 7.9375L11.4375 5.4375C11.1875 5.1875 11.1875 4.8125 11.4375 4.5625C11.6875 4.3125 12.0625 4.3125 12.3125 4.5625L14.8125 7.0625C15.0625 7.3125 15.0625 7.6875 14.8125 7.9375C14.6875 8.0625 14.5625 8.125 14.375 8.125Z" fill="#efefef"/>
<path d="M11.875 10.625C11.6875 10.625 11.5625 10.5625 11.4375 10.4375C11.1875 10.1875 11.1875 9.8125 11.4375 9.5625L13.9375 7.0625C14.1875 6.8125 14.5625 6.8125 14.8125 7.0625C15.0625 7.3125 15.0625 7.6875 14.8125 7.9375L12.3125 10.4375C12.1875 10.5625 12.0625 10.625 11.875 10.625Z" fill="#efefef"/>
</svg>
