<svg width="100" height="150" viewBox="0 0 100 150" fill="none" xmlns="http://www.w3.org/2000/svg">
<circle cx="50" cy="50" r="50" fill="#A2B6F6"/>
<path d="M51.7321 147C50.9623 148.333 49.0377 148.333 48.2679 147L8.43078 78C7.66098 76.6667 8.62323 75 10.1628 75L89.8372 75C91.3768 75 92.339 76.6667 91.5692 78L51.7321 147Z" fill="#A2B6F6"/>
<circle cx="49.5" cy="50.5" r="42.5" fill="white"/>
<circle cx="50" cy="50" r="30" fill="#A2B6F6"/>
<path d="M39.0661 35.008C39.2341 34.96 39.3901 34.924 39.5341 34.9C39.6781 34.852 39.8221 34.816 39.9661 34.792C40.1341 34.744 40.3381 34.72 40.5781 34.72C40.8421 34.696 41.0821 34.708 41.2981 34.756C41.5381 34.78 41.7541 34.852 41.9461 34.972C42.1621 35.068 42.3181 35.224 42.4141 35.44C42.5101 35.68 42.5701 35.968 42.5941 36.304C42.6421 36.616 42.6661 36.94 42.6661 37.276C42.6661 37.612 42.6541 37.948 42.6301 38.284C42.6301 38.596 42.6301 38.884 42.6301 39.148V57.544C42.6301 57.808 42.6301 58.084 42.6301 58.372C42.6541 58.636 42.6541 58.912 42.6301 59.2C42.6061 59.488 42.5341 59.764 42.4141 60.028C42.2941 60.268 42.1141 60.472 41.8741 60.64C41.5381 60.904 41.0821 61.036 40.5061 61.036C39.9541 61.06 39.4741 61 39.0661 60.856C38.6341 60.712 38.3701 60.436 38.2741 60.028C38.2021 59.62 38.1661 59.212 38.1661 58.804C37.9981 55.636 37.9141 52.54 37.9141 49.516C37.9381 46.468 37.9501 43.336 37.9501 40.12C37.9021 40.24 37.7341 40.348 37.4461 40.444C37.1821 40.54 36.8701 40.624 36.5101 40.696C36.1741 40.768 35.8501 40.828 35.5381 40.876C35.2261 40.924 35.0221 40.948 34.9261 40.948C34.3021 41.02 33.7261 40.96 33.1981 40.768C32.6941 40.552 32.4061 40.072 32.3341 39.328C32.2381 38.56 32.4061 37.96 32.8381 37.528C33.2941 37.096 33.8701 36.772 34.5661 36.556C35.3341 36.292 36.0781 36.028 36.7981 35.764C37.5421 35.476 38.2981 35.224 39.0661 35.008ZM57.4309 60.892C56.9989 60.892 56.5549 60.868 56.0989 60.82C55.6669 60.748 55.2349 60.628 54.8029 60.46C54.1549 60.196 53.5309 59.848 52.9309 59.416C52.3549 58.96 51.8269 58.456 51.3469 57.904C50.1949 56.608 49.3189 55.084 48.7189 53.332C48.1189 51.556 47.8189 49.756 47.8189 47.932C47.8189 45.436 48.2989 43.024 49.2589 40.696C49.4269 40.288 49.6429 39.856 49.9069 39.4C50.1949 38.944 50.5069 38.512 50.8429 38.104C51.2029 37.672 51.5629 37.288 51.9229 36.952C52.3069 36.616 52.6909 36.364 53.0749 36.196C53.6029 35.956 54.1789 35.716 54.8029 35.476C55.5709 35.236 56.4349 35.128 57.3949 35.152C58.3549 35.176 59.2309 35.284 60.0229 35.476C61.1269 35.74 62.0749 36.22 62.8669 36.916C63.6589 37.588 64.3309 38.404 64.8829 39.364C65.4349 40.3 65.8669 41.332 66.1789 42.46C66.4909 43.564 66.7189 44.692 66.8629 45.844C66.9589 46.612 66.9949 47.38 66.9709 48.148C66.9469 48.892 66.8869 49.648 66.7909 50.416C66.6949 51.112 66.5749 51.808 66.4309 52.504C66.3109 53.2 66.1429 53.872 65.9269 54.52C65.7109 55.168 65.4349 55.792 65.0989 56.392C64.7629 56.968 64.3429 57.508 63.8389 58.012C62.9269 58.9 61.9309 59.596 60.8509 60.1C59.7949 60.58 58.6549 60.844 57.4309 60.892ZM57.3949 39.904C57.0589 39.904 56.7229 39.94 56.3869 40.012C56.0749 40.06 55.7749 40.18 55.4869 40.372C55.1509 40.588 54.8509 40.852 54.5869 41.164C54.3229 41.476 54.0949 41.8 53.9029 42.136C53.3989 43 53.0509 43.924 52.8589 44.908C52.6669 45.892 52.5709 46.888 52.5709 47.896C52.5709 48.928 52.6789 49.996 52.8949 51.1C53.1349 52.204 53.5549 53.212 54.1549 54.124C54.4429 54.556 54.7789 54.94 55.1629 55.276C55.5709 55.588 56.0389 55.816 56.5669 55.96C57.0469 56.08 57.5269 56.116 58.0069 56.068C58.5109 56.02 58.9789 55.864 59.4109 55.6C60.1069 55.168 60.6589 54.592 61.0669 53.872C61.4749 53.152 61.7749 52.372 61.9669 51.532C62.1829 50.692 62.3029 49.828 62.3269 48.94C62.3749 48.052 62.3749 47.248 62.3269 46.528C62.2789 45.808 62.1589 45.052 61.9669 44.26C61.7749 43.468 61.4869 42.748 61.1029 42.1C60.7429 41.452 60.2509 40.924 59.6269 40.516C59.0269 40.084 58.2829 39.88 57.3949 39.904Z" fill="white"/>
</svg>
