<svg width="100" height="150" viewBox="0 0 100 150" fill="none" xmlns="http://www.w3.org/2000/svg">
<circle cx="50" cy="50" r="50" fill="#A2B6F6"/>
<path d="M51.7321 147C50.9622 148.333 49.0378 148.333 48.2679 147L8.43078 78C7.66098 76.6667 8.62323 75 10.1628 75L89.8372 75C91.3768 75 92.339 76.6667 91.5692 78L51.7321 147Z" fill="#A2B6F6"/>
<circle cx="49.5" cy="50.5" r="42.5" fill="white"/>
<circle cx="50" cy="50" r="30" fill="#A2B6F6"/>
<path d="M50.0876 35.008C50.2556 34.96 50.4116 34.924 50.5556 34.9C50.6996 34.852 50.8436 34.816 50.9876 34.792C51.1556 34.744 51.3596 34.72 51.5996 34.72C51.8636 34.696 52.1036 34.708 52.3196 34.756C52.5596 34.78 52.7756 34.852 52.9676 34.972C53.1836 35.068 53.3396 35.224 53.4356 35.44C53.5316 35.68 53.5916 35.968 53.6156 36.304C53.6636 36.616 53.6876 36.94 53.6876 37.276C53.6876 37.612 53.6756 37.948 53.6516 38.284C53.6516 38.596 53.6516 38.884 53.6516 39.148V57.544C53.6516 57.808 53.6516 58.084 53.6516 58.372C53.6756 58.636 53.6756 58.912 53.6516 59.2C53.6276 59.488 53.5556 59.764 53.4356 60.028C53.3156 60.268 53.1356 60.472 52.8956 60.64C52.5596 60.904 52.1036 61.036 51.5276 61.036C50.9756 61.06 50.4956 61 50.0876 60.856C49.6556 60.712 49.3916 60.436 49.2956 60.028C49.2236 59.62 49.1876 59.212 49.1876 58.804C49.0196 55.636 48.9356 52.54 48.9356 49.516C48.9596 46.468 48.9716 43.336 48.9716 40.12C48.9236 40.24 48.7556 40.348 48.4676 40.444C48.2036 40.54 47.8916 40.624 47.5316 40.696C47.1956 40.768 46.8716 40.828 46.5596 40.876C46.2476 40.924 46.0436 40.948 45.9476 40.948C45.3236 41.02 44.7476 40.96 44.2196 40.768C43.7156 40.552 43.4276 40.072 43.3556 39.328C43.2596 38.56 43.4276 37.96 43.8596 37.528C44.3156 37.096 44.8916 36.772 45.5876 36.556C46.3556 36.292 47.0996 36.028 47.8196 35.764C48.5636 35.476 49.3196 35.224 50.0876 35.008Z" fill="white"/>
</svg>
