<svg width="100" height="150" viewBox="0 0 100 150" fill="none" xmlns="http://www.w3.org/2000/svg">
<circle cx="50" cy="50" r="50" fill="#A2B6F6"/>
<path d="M51.7321 147C50.9623 148.333 49.0377 148.333 48.2679 147L8.43078 78C7.66098 76.6667 8.62323 75 10.1628 75L89.8372 75C91.3768 75 92.339 76.6667 91.5692 78L51.7321 147Z" fill="#A2B6F6"/>
<circle cx="49.5" cy="50.5" r="42.5" fill="white"/>
<circle cx="50" cy="50" r="30" fill="#A2B6F6"/>
<path d="M45.1587 43.468C44.7987 44.02 44.3667 44.356 43.8627 44.476C43.3827 44.596 42.9147 44.56 42.4587 44.368C42.0027 44.176 41.6187 43.864 41.3067 43.432C41.0187 42.976 40.8987 42.46 40.9467 41.884C40.9707 41.5 41.0667 41.08 41.2347 40.624C41.4027 40.168 41.6067 39.736 41.8467 39.328C42.1107 38.896 42.3867 38.5 42.6747 38.14C42.9867 37.756 43.2987 37.432 43.6107 37.168C44.1867 36.712 44.8347 36.316 45.5547 35.98C46.2987 35.644 47.0667 35.392 47.8587 35.224C48.6747 35.056 49.4787 34.984 50.2707 35.008C51.0867 35.032 51.8427 35.152 52.5387 35.368C54.4587 35.968 55.9467 36.916 57.0027 38.212C58.0587 39.508 58.5867 41.188 58.5867 43.252C58.5867 44.236 58.4907 45.124 58.2987 45.916C58.1307 46.684 57.8187 47.428 57.3627 48.148C56.9307 48.868 56.3427 49.6 55.5987 50.344C54.8787 51.088 53.9787 51.904 52.8987 52.792C52.5387 53.104 52.1667 53.416 51.7827 53.728C51.3987 54.04 51.0147 54.352 50.6307 54.664C50.5107 54.76 50.2827 54.904 49.9467 55.096C49.6107 55.288 49.3107 55.48 49.0467 55.672C48.7827 55.864 48.6267 56.044 48.5787 56.212C48.5307 56.38 48.7227 56.476 49.1547 56.5C49.6827 56.548 50.1027 56.56 50.4147 56.536C50.7267 56.512 51.1467 56.5 51.6747 56.5C52.2987 56.5 52.9107 56.488 53.5107 56.464C54.1107 56.44 54.7107 56.452 55.3107 56.5C55.5507 56.524 55.8147 56.536 56.1027 56.536C56.3907 56.512 56.6787 56.512 56.9667 56.536C57.2547 56.536 57.5307 56.572 57.7947 56.644C58.0587 56.692 58.2867 56.8 58.4787 56.968C58.6707 57.136 58.8147 57.364 58.9107 57.652C59.0067 57.94 59.0547 58.252 59.0547 58.588C59.0787 58.9 59.0547 59.212 58.9827 59.524C58.9107 59.812 58.7907 60.04 58.6227 60.208C58.3107 60.568 57.9267 60.748 57.4707 60.748C57.0147 60.724 56.5827 60.712 56.1747 60.712H43.2507C43.0107 60.712 42.7467 60.724 42.4587 60.748C42.1947 60.772 41.9547 60.748 41.7387 60.676C41.3067 60.556 41.0907 60.328 41.0907 59.992C41.1147 59.656 41.1267 59.308 41.1267 58.948C41.1267 58.348 41.2707 57.796 41.5587 57.292C41.8467 56.764 42.2067 56.284 42.6387 55.852C43.0947 55.396 43.5747 54.976 44.0787 54.592C44.5827 54.208 45.0507 53.836 45.4827 53.476C46.1067 52.924 46.7787 52.372 47.4987 51.82C48.2187 51.268 48.9027 50.716 49.5507 50.164C50.3907 49.468 51.0987 48.832 51.6747 48.256C52.2747 47.68 52.7547 47.14 53.1147 46.636C53.4747 46.132 53.7387 45.64 53.9067 45.16C54.0747 44.656 54.1587 44.128 54.1587 43.576C54.1587 42.352 53.7867 41.416 53.0427 40.768C52.2987 40.096 51.3507 39.76 50.1987 39.76C49.3587 39.76 48.5667 39.94 47.8227 40.3C47.1027 40.66 46.5027 41.188 46.0227 41.884C45.8787 42.148 45.7347 42.424 45.5907 42.712C45.4707 42.976 45.3267 43.228 45.1587 43.468Z" fill="white"/>
</svg>
