<svg width="100" height="150" viewBox="0 0 100 150" fill="none" xmlns="http://www.w3.org/2000/svg">
<circle cx="50" cy="50" r="50" fill="#A2B6F6"/>
<path d="M51.7321 147C50.9623 148.333 49.0377 148.333 48.2679 147L8.43078 78C7.66098 76.6667 8.62323 75 10.1628 75L89.8372 75C91.3768 75 92.339 76.6667 91.5692 78L51.7321 147Z" fill="#A2B6F6"/>
<circle cx="49.5" cy="50.5" r="42.5" fill="white"/>
<circle cx="50" cy="50" r="30" fill="#A2B6F6"/>
<path d="M42.1555 39.004C41.8435 38.716 41.6875 38.284 41.6875 37.708C41.7115 37.444 41.7595 37.192 41.8315 36.952C41.9035 36.688 42.0355 36.46 42.2275 36.268C42.7555 35.788 43.3195 35.512 43.9195 35.44C44.5195 35.368 45.1675 35.308 45.8635 35.26C46.4155 35.236 46.9075 35.236 47.3395 35.26C47.7715 35.26 48.2635 35.26 48.8155 35.26C49.6555 35.26 50.5675 35.272 51.5515 35.296C52.5595 35.32 53.5075 35.356 54.3955 35.404C54.7555 35.428 55.1155 35.476 55.4755 35.548C55.8355 35.62 56.1595 35.752 56.4475 35.944C56.7355 36.112 56.9635 36.34 57.1315 36.628C57.3235 36.892 57.4315 37.228 57.4555 37.636C57.4795 38.116 57.4075 38.572 57.2395 39.004C57.0955 39.436 56.8915 39.856 56.6275 40.264C56.3635 40.648 56.0635 41.02 55.7275 41.38C55.4155 41.716 55.1155 42.028 54.8275 42.316C54.2995 42.868 53.6995 43.456 53.0275 44.08C52.3555 44.704 51.7555 45.292 51.2275 45.844C52.1635 45.964 53.0635 46.18 53.9275 46.492C54.8155 46.804 55.5955 47.236 56.2675 47.788C56.9395 48.34 57.4675 49.036 57.8515 49.876C58.2595 50.692 58.4635 51.676 58.4635 52.828C58.4635 53.98 58.2355 55.048 57.7795 56.032C57.3475 57.016 56.7355 57.88 55.9435 58.624C55.1515 59.344 54.2155 59.908 53.1355 60.316C52.0555 60.724 50.8675 60.928 49.5715 60.928C49.0195 60.928 48.4195 60.88 47.7715 60.784C47.1475 60.688 46.5235 60.544 45.8995 60.352C45.2755 60.16 44.6755 59.92 44.0995 59.632C43.5475 59.32 43.0675 58.948 42.6595 58.516C42.3715 58.228 42.1195 57.892 41.9035 57.508C41.7115 57.1 41.5915 56.692 41.5435 56.284C41.5195 55.852 41.6035 55.468 41.7955 55.132C41.9875 54.772 42.3235 54.508 42.8035 54.34C43.1635 54.22 43.5115 54.172 43.8475 54.196C44.1835 54.22 44.5075 54.304 44.8195 54.448C45.1315 54.568 45.4315 54.712 45.7195 54.88C46.0315 55.048 46.3315 55.216 46.6195 55.384C47.5075 55.936 48.4315 56.26 49.3915 56.356C50.3755 56.452 51.3355 56.224 52.2715 55.672C52.7995 55.36 53.1835 54.976 53.4235 54.52C53.6635 54.04 53.7595 53.56 53.7115 53.08C53.6875 52.6 53.5315 52.144 53.2435 51.712C52.9795 51.28 52.6075 50.92 52.1275 50.632C51.6715 50.368 51.1675 50.188 50.6155 50.092C50.0635 49.996 49.5115 49.9 48.9595 49.804C48.4075 49.708 47.8795 49.576 47.3755 49.408C46.8715 49.24 46.4395 48.952 46.0795 48.544C45.6715 48.088 45.5395 47.596 45.6835 47.068C45.8275 46.54 46.0915 46.024 46.4755 45.52C46.8835 45.016 47.3275 44.536 47.8075 44.08C48.3115 43.624 48.7075 43.24 48.9955 42.928C49.1635 42.76 49.3555 42.556 49.5715 42.316C49.8115 42.076 50.0275 41.836 50.2195 41.596C50.4355 41.356 50.6155 41.128 50.7595 40.912C50.9275 40.672 51.0355 40.456 51.0835 40.264C51.1555 40.072 51.1195 39.94 50.9755 39.868C50.8315 39.772 50.6515 39.724 50.4355 39.724C50.2195 39.7 49.9795 39.7 49.7155 39.724C49.4755 39.724 49.2835 39.724 49.1395 39.724H46.7275C46.3915 39.724 46.0195 39.736 45.6115 39.76C45.2035 39.76 44.7835 39.748 44.3515 39.724C43.9435 39.676 43.5355 39.604 43.1275 39.508C42.7435 39.412 42.4195 39.244 42.1555 39.004Z" fill="white"/>
</svg>
