<svg width="100" height="150" viewBox="0 0 100 150" fill="none" xmlns="http://www.w3.org/2000/svg">
<circle cx="50" cy="50" r="50" fill="#A2B6F6"/>
<path d="M51.7321 147C50.9623 148.333 49.0377 148.333 48.2679 147L8.43078 78C7.66098 76.6667 8.62323 75 10.1628 75L89.8372 75C91.3768 75 92.339 76.6667 91.5692 78L51.7321 147Z" fill="#A2B6F6"/>
<circle cx="49.5" cy="50.5" r="42.5" fill="white"/>
<circle cx="50" cy="50" r="30" fill="#A2B6F6"/>
<path d="M55.2573 35.872C55.4253 36.136 55.5333 36.472 55.5813 36.88C55.7013 37.72 55.7493 38.584 55.7253 39.472C55.7253 40.336 55.7373 41.188 55.7613 42.028C55.7613 43.012 55.7613 43.984 55.7613 44.944C55.7853 45.904 55.7973 46.876 55.7973 47.86V50.92H57.3453C57.6093 50.92 57.8853 50.956 58.1733 51.028C58.4613 51.076 58.7253 51.172 58.9653 51.316C59.2053 51.46 59.4093 51.64 59.5773 51.856C59.7453 52.072 59.8413 52.336 59.8653 52.648C59.8653 53.416 59.6253 53.944 59.1453 54.232C58.6653 54.496 58.0893 54.652 57.4173 54.7C57.3693 54.7 57.2613 54.712 57.0933 54.736C56.9493 54.736 56.7813 54.736 56.5893 54.736C56.3973 54.736 56.2173 54.736 56.0493 54.736C55.9053 54.736 55.8213 54.712 55.7973 54.664V57.112C55.7973 57.376 55.7973 57.676 55.7973 58.012C55.7973 58.348 55.7733 58.684 55.7253 59.02C55.6773 59.332 55.5813 59.632 55.4373 59.92C55.3173 60.208 55.1253 60.436 54.8613 60.604C54.7413 60.676 54.5853 60.736 54.3933 60.784C54.2253 60.808 54.0333 60.832 53.8173 60.856C53.6013 60.88 53.3853 60.892 53.1693 60.892C52.9773 60.868 52.8093 60.832 52.6653 60.784C52.2333 60.64 51.9573 60.34 51.8373 59.884C51.7173 59.404 51.6333 58.96 51.5853 58.552C51.5853 58.48 51.5853 58.252 51.5853 57.868C51.5853 57.46 51.5853 57.04 51.5853 56.608C51.5853 56.152 51.5733 55.744 51.5493 55.384C51.5253 55.024 51.4893 54.844 51.4413 54.844H45.1053C44.4093 54.844 43.6773 54.832 42.9093 54.808C42.1413 54.784 41.4813 54.568 40.9293 54.16C40.4973 53.848 40.2453 53.5 40.1733 53.116C40.1013 52.708 40.1253 52.312 40.2453 51.928C40.3893 51.52 40.5933 51.124 40.8573 50.74C41.1213 50.356 41.3733 50.008 41.6133 49.696C42.5253 48.472 43.4013 47.224 44.2413 45.952C45.1053 44.68 45.9693 43.42 46.8333 42.172C47.3133 41.524 47.8053 40.9 48.3093 40.3C48.8373 39.7 49.3293 39.076 49.7853 38.428C50.1213 37.924 50.4813 37.408 50.8653 36.88C51.2733 36.352 51.7773 35.944 52.3773 35.656C52.9533 35.392 53.5053 35.26 54.0333 35.26C54.5613 35.26 54.9693 35.464 55.2573 35.872ZM51.6933 42.352L45.7173 50.776H51.6933V42.352Z" fill="white"/>
</svg>
