<svg width="100" height="150" viewBox="0 0 100 150" fill="none" xmlns="http://www.w3.org/2000/svg">
<circle cx="50" cy="50" r="50" fill="#A2B6F6"/>
<path d="M51.7321 147C50.9623 148.333 49.0377 148.333 48.2679 147L8.43078 78C7.66098 76.6667 8.62323 75 10.1628 75L89.8372 75C91.3768 75 92.339 76.6667 91.5692 78L51.7321 147Z" fill="#A2B6F6"/>
<circle cx="49.5" cy="50.5" r="42.5" fill="white"/>
<circle cx="50" cy="50" r="30" fill="#A2B6F6"/>
<path d="M43.3193 35.836C43.5353 35.62 43.8113 35.488 44.1473 35.44C44.5073 35.368 44.9273 35.332 45.4073 35.332H54.2993C54.6113 35.332 54.9593 35.332 55.3433 35.332C55.7513 35.308 56.1353 35.332 56.4953 35.404C56.8553 35.476 57.1673 35.608 57.4313 35.8C57.7193 35.968 57.9233 36.244 58.0433 36.628C58.1153 36.868 58.1393 37.144 58.1153 37.456C58.1153 37.768 58.0553 38.068 57.9353 38.356C57.8393 38.62 57.6833 38.86 57.4673 39.076C57.2513 39.268 56.9873 39.376 56.6753 39.4C56.0513 39.52 55.4033 39.556 54.7313 39.508C54.0593 39.436 53.4113 39.4 52.7873 39.4C52.0913 39.4 51.4793 39.424 50.9513 39.472C50.4233 39.52 49.8233 39.544 49.1513 39.544C48.8873 39.544 48.5513 39.532 48.1433 39.508C47.7353 39.484 47.4233 39.508 47.2073 39.58C47.0153 39.628 46.8593 39.724 46.7393 39.868C46.6433 40.012 46.5713 40.18 46.5233 40.372C46.4753 40.54 46.4513 40.72 46.4513 40.912C46.4513 41.104 46.4513 41.272 46.4513 41.416C46.4513 41.824 46.4273 42.244 46.3793 42.676C46.3553 43.084 46.3313 43.492 46.3073 43.9C46.2593 44.452 46.3313 44.764 46.5233 44.836C46.7393 44.884 47.0993 44.836 47.6033 44.692C48.4673 44.476 49.3553 44.368 50.2673 44.368C51.4913 44.368 52.6313 44.536 53.6873 44.872C54.7433 45.184 55.6553 45.676 56.4233 46.348C57.2153 46.996 57.8273 47.824 58.2593 48.832C58.7153 49.816 58.9433 50.968 58.9433 52.288C58.9433 52.528 58.9313 52.756 58.9073 52.972C58.9073 53.188 58.8833 53.404 58.8353 53.62C58.6433 55.132 58.0793 56.464 57.1433 57.616C56.2073 58.768 55.0193 59.596 53.5793 60.1C51.8753 60.748 50.1113 61.048 48.2873 61C46.4633 60.928 44.7833 60.4 43.2473 59.416C42.8153 59.152 42.4193 58.84 42.0593 58.48C41.6993 58.096 41.4353 57.664 41.2673 57.184C41.0753 56.68 41.0153 56.164 41.0873 55.636C41.1833 55.084 41.5073 54.676 42.0593 54.412C42.4673 54.22 42.8393 54.16 43.1753 54.232C43.5353 54.28 43.8713 54.4 44.1833 54.592C44.4953 54.76 44.7953 54.976 45.0833 55.24C45.3953 55.48 45.7073 55.684 46.0193 55.852C46.5713 56.116 47.1473 56.344 47.7473 56.536C48.3473 56.704 48.9833 56.788 49.6553 56.788C51.1433 56.788 52.3313 56.392 53.2193 55.6C54.1313 54.808 54.5873 53.74 54.5873 52.396C54.5873 51.1 54.1193 50.092 53.1833 49.372C52.2473 48.628 50.9873 48.256 49.4033 48.256C48.9953 48.256 48.5873 48.28 48.1793 48.328C47.7713 48.376 47.3633 48.46 46.9553 48.58C46.5713 48.676 46.1873 48.784 45.8033 48.904C45.4433 49.024 45.0833 49.108 44.7233 49.156C44.3633 49.18 44.0033 49.144 43.6433 49.048C43.3073 48.928 42.9833 48.676 42.6713 48.292C42.3593 47.956 42.2033 47.548 42.2033 47.068C42.2033 46.588 42.2273 46.144 42.2753 45.736C42.3233 45.04 42.3593 44.344 42.3833 43.648C42.4073 42.952 42.4433 42.256 42.4913 41.56C42.5393 40.864 42.5753 40.18 42.5993 39.508C42.6473 38.812 42.6953 38.116 42.7433 37.42C42.7673 37.012 42.8273 36.688 42.9233 36.448C43.0193 36.208 43.1513 36.004 43.3193 35.836Z" fill="white"/>
</svg>
