<svg width="100" height="150" viewBox="0 0 100 150" fill="none" xmlns="http://www.w3.org/2000/svg">
<circle cx="50" cy="50" r="50" fill="#A2B6F6"/>
<path d="M51.7321 147C50.9623 148.333 49.0377 148.333 48.2679 147L8.43078 78C7.66098 76.6667 8.62323 75 10.1628 75L89.8372 75C91.3768 75 92.339 76.6667 91.5692 78L51.7321 147Z" fill="#A2B6F6"/>
<circle cx="49.5" cy="50.5" r="42.5" fill="white"/>
<circle cx="50" cy="50" r="30" fill="#A2B6F6"/>
<path d="M55.685 40.912C55.469 40.768 55.241 40.624 55.001 40.48C54.761 40.312 54.509 40.18 54.245 40.084C53.405 39.748 52.481 39.568 51.473 39.544C50.489 39.496 49.565 39.676 48.701 40.084C48.005 40.42 47.417 40.84 46.937 41.344C46.481 41.848 46.109 42.412 45.821 43.036C45.533 43.66 45.317 44.32 45.173 45.016C45.029 45.712 44.945 46.408 44.921 47.104C45.569 46.456 46.361 45.88 47.297 45.376C48.233 44.848 49.433 44.584 50.897 44.584C52.121 44.584 53.261 44.764 54.317 45.124C55.397 45.46 56.333 45.964 57.125 46.636C57.917 47.308 58.541 48.136 58.997 49.12C59.453 50.104 59.681 51.232 59.681 52.504C59.681 53.776 59.441 54.94 58.961 55.996C58.481 57.028 57.821 57.928 56.981 58.696C56.165 59.44 55.181 60.028 54.029 60.46C52.901 60.868 51.677 61.072 50.357 61.072C48.821 61.072 47.477 60.844 46.325 60.388C45.197 59.908 44.213 59.26 43.373 58.444C42.893 57.964 42.461 57.436 42.077 56.86C41.717 56.26 41.405 55.588 41.141 54.844C40.877 54.076 40.673 53.2 40.529 52.216C40.385 51.232 40.313 50.104 40.313 48.832C40.313 47.776 40.385 46.708 40.529 45.628C40.673 44.548 40.913 43.504 41.249 42.496C41.609 41.488 42.077 40.54 42.653 39.652C43.229 38.764 43.949 37.972 44.813 37.276C45.629 36.628 46.517 36.124 47.477 35.764C48.437 35.404 49.421 35.2 50.429 35.152C51.437 35.104 52.445 35.2 53.453 35.44C54.461 35.68 55.409 36.076 56.297 36.628C56.537 36.772 56.813 36.988 57.125 37.276C57.437 37.54 57.701 37.84 57.917 38.176C58.133 38.512 58.265 38.896 58.313 39.328C58.361 39.736 58.241 40.156 57.953 40.588C57.905 40.684 57.797 40.78 57.629 40.876C57.461 40.972 57.269 41.044 57.053 41.092C56.837 41.14 56.609 41.152 56.369 41.128C56.129 41.104 55.901 41.032 55.685 40.912ZM50.105 48.904C49.289 48.952 48.521 49.168 47.801 49.552C47.081 49.912 46.457 50.404 45.929 51.028C45.593 51.436 45.401 51.904 45.353 52.432C45.305 52.936 45.341 53.44 45.461 53.944C45.557 54.544 45.797 55.072 46.181 55.528C46.565 55.96 47.009 56.32 47.513 56.608C48.041 56.872 48.605 57.064 49.205 57.184C49.829 57.28 50.429 57.292 51.005 57.22C51.653 57.148 52.241 56.98 52.769 56.716C53.321 56.428 53.789 56.08 54.173 55.672C54.557 55.24 54.845 54.748 55.037 54.196C55.253 53.62 55.325 53.008 55.253 52.36C55.181 51.664 55.001 51.088 54.713 50.632C54.425 50.152 54.053 49.78 53.597 49.516C53.141 49.252 52.613 49.084 52.013 49.012C51.413 48.916 50.777 48.88 50.105 48.904Z" fill="white"/>
</svg>
