<svg width="100" height="150" viewBox="0 0 100 150" fill="none" xmlns="http://www.w3.org/2000/svg">
<circle cx="50" cy="50" r="50" fill="#A2B6F6"/>
<path d="M51.7321 147C50.9623 148.333 49.0377 148.333 48.2679 147L8.43078 78C7.66098 76.6667 8.62323 75 10.1628 75L89.8372 75C91.3768 75 92.339 76.6667 91.5692 78L51.7321 147Z" fill="#A2B6F6"/>
<circle cx="49.5" cy="50.5" r="42.5" fill="white"/>
<circle cx="50" cy="50" r="30" fill="#A2B6F6"/>
<path d="M41.3336 35.764C41.6216 35.62 41.9456 35.536 42.3056 35.512C42.6656 35.464 43.0496 35.44 43.4576 35.44H56.4896C56.8256 35.44 57.1856 35.428 57.5696 35.404C57.9536 35.38 58.3016 35.452 58.6136 35.62C59.0456 35.86 59.2976 36.244 59.3696 36.772C59.4416 37.276 59.3936 37.852 59.2256 38.5C59.0816 39.124 58.8536 39.796 58.5416 40.516C58.2296 41.212 57.9056 41.884 57.5696 42.532C57.2336 43.156 56.9096 43.732 56.5976 44.26C56.2856 44.764 56.0696 45.148 55.9496 45.412C55.5656 46.132 55.2056 46.792 54.8696 47.392C54.5576 47.992 54.2456 48.592 53.9336 49.192C53.6456 49.792 53.3336 50.392 52.9976 50.992C52.6856 51.592 52.3376 52.252 51.9536 52.972C51.4736 53.956 50.9216 54.988 50.2976 56.068C49.6976 57.124 49.1216 58.12 48.5696 59.056C48.4016 59.344 48.2096 59.632 47.9936 59.92C47.7776 60.208 47.5256 60.448 47.2376 60.64C46.9736 60.832 46.6616 60.952 46.3016 61C45.9656 61.048 45.5936 60.976 45.1856 60.784C44.5616 60.448 44.1536 59.956 43.9616 59.308C43.7936 58.66 43.8536 58.06 44.1416 57.508C44.5976 56.692 45.0416 55.876 45.4736 55.06C45.9056 54.22 46.3376 53.392 46.7696 52.576C47.4176 51.352 48.0176 50.176 48.5696 49.048C49.1456 47.92 49.7576 46.744 50.4056 45.52C50.5976 45.16 50.8616 44.728 51.1976 44.224C51.5336 43.696 51.8456 43.156 52.1336 42.604C52.4456 42.052 52.6856 41.512 52.8536 40.984C53.0456 40.432 53.1056 39.952 53.0336 39.544C52.1936 39.472 51.4256 39.448 50.7296 39.472C50.0576 39.472 49.3136 39.472 48.4976 39.472H45.0056C44.5736 39.472 44.1056 39.484 43.6016 39.508C43.1216 39.532 42.6656 39.508 42.2336 39.436C41.8016 39.34 41.4296 39.16 41.1176 38.896C40.8296 38.632 40.6496 38.2 40.5776 37.6C40.5296 37.096 40.5776 36.7 40.7216 36.412C40.8656 36.124 41.0696 35.908 41.3336 35.764Z" fill="white"/>
</svg>
