<svg width="100" height="150" viewBox="0 0 100 150" fill="none" xmlns="http://www.w3.org/2000/svg">
<circle cx="50" cy="50" r="50" fill="#A2B6F6"/>
<path d="M51.7321 147C50.9623 148.333 49.0377 148.333 48.2679 147L8.43078 78C7.66098 76.6667 8.62323 75 10.1628 75L89.8372 75C91.3768 75 92.339 76.6667 91.5692 78L51.7321 147Z" fill="#A2B6F6"/>
<circle cx="49.5" cy="50.5" r="42.5" fill="white"/>
<circle cx="50" cy="50" r="30" fill="#A2B6F6"/>
<path d="M50.089 60.964C49.369 60.964 48.625 60.928 47.857 60.856C47.113 60.784 46.381 60.64 45.661 60.424C44.965 60.184 44.305 59.86 43.681 59.452C43.081 59.044 42.577 58.516 42.169 57.868C41.713 57.172 41.389 56.428 41.197 55.636C41.029 54.82 40.969 53.992 41.017 53.152C41.137 51.856 41.569 50.752 42.313 49.84C43.081 48.928 44.041 48.232 45.193 47.752C45.097 47.752 44.941 47.692 44.725 47.572C44.533 47.452 44.329 47.308 44.113 47.14C43.897 46.972 43.693 46.816 43.501 46.672C43.333 46.504 43.213 46.396 43.141 46.348C42.853 46.036 42.613 45.676 42.421 45.268C42.253 44.86 42.109 44.452 41.989 44.044C41.677 42.964 41.641 41.836 41.881 40.66C42.121 39.46 42.613 38.416 43.357 37.528C43.669 37.144 44.065 36.808 44.545 36.52C45.025 36.208 45.541 35.956 46.093 35.764C46.645 35.548 47.197 35.38 47.749 35.26C48.325 35.14 48.841 35.08 49.297 35.08C49.921 35.08 50.533 35.068 51.133 35.044C51.733 35.02 52.333 35.056 52.933 35.152C53.677 35.272 54.361 35.512 54.985 35.872C55.633 36.232 56.197 36.676 56.677 37.204C57.637 38.26 58.249 39.448 58.513 40.768C58.801 42.064 58.765 43.396 58.405 44.764C58.285 45.148 58.105 45.508 57.865 45.844C57.625 46.156 57.349 46.456 57.037 46.744C56.965 46.792 56.845 46.876 56.677 46.996C56.509 47.116 56.317 47.248 56.101 47.392C55.909 47.512 55.717 47.62 55.525 47.716C55.333 47.788 55.189 47.812 55.093 47.788C55.669 48.148 56.221 48.508 56.749 48.868C57.277 49.204 57.709 49.684 58.045 50.308C58.381 50.932 58.621 51.592 58.765 52.288C58.933 52.984 58.993 53.68 58.945 54.376C58.921 55.072 58.789 55.756 58.549 56.428C58.309 57.076 57.961 57.664 57.505 58.192C57.049 58.72 56.521 59.164 55.921 59.524C55.345 59.86 54.733 60.136 54.085 60.352C53.437 60.568 52.765 60.724 52.069 60.82C51.397 60.916 50.737 60.964 50.089 60.964ZM50.161 50.452C49.633 50.476 49.093 50.548 48.541 50.668C48.013 50.788 47.521 50.98 47.065 51.244C46.633 51.484 46.261 51.82 45.949 52.252C45.637 52.66 45.445 53.176 45.373 53.8C45.325 54.28 45.385 54.712 45.553 55.096C45.745 55.456 45.985 55.78 46.273 56.068C46.585 56.332 46.945 56.548 47.353 56.716C47.761 56.86 48.169 56.956 48.577 57.004C49.537 57.148 50.461 57.136 51.349 56.968C51.685 56.896 51.997 56.836 52.285 56.788C52.597 56.716 52.873 56.62 53.113 56.5C53.377 56.38 53.605 56.224 53.797 56.032C54.013 55.816 54.193 55.528 54.337 55.168C54.553 54.664 54.637 54.1 54.589 53.476C54.565 52.828 54.373 52.3 54.013 51.892C53.485 51.268 52.897 50.86 52.249 50.668C51.625 50.476 50.929 50.404 50.161 50.452ZM50.197 39.04C49.645 39.088 49.117 39.172 48.613 39.292C48.109 39.412 47.665 39.604 47.281 39.868C46.897 40.132 46.597 40.48 46.381 40.912C46.189 41.344 46.105 41.884 46.129 42.532C46.153 42.988 46.225 43.42 46.345 43.828C46.465 44.212 46.693 44.572 47.029 44.908C47.437 45.388 47.929 45.676 48.505 45.772C49.081 45.844 49.657 45.868 50.233 45.844C51.121 45.844 51.889 45.712 52.537 45.448C53.209 45.184 53.749 44.62 54.157 43.756C54.469 43.06 54.553 42.412 54.409 41.812C54.265 41.212 53.989 40.708 53.581 40.3C53.173 39.868 52.657 39.544 52.033 39.328C51.433 39.088 50.821 38.992 50.197 39.04Z" fill="white"/>
</svg>
