<svg width="100" height="150" viewBox="0 0 100 150" fill="none" xmlns="http://www.w3.org/2000/svg">
<circle cx="50" cy="50" r="50" fill="#A2B6F6"/>
<path d="M51.7321 147C50.9623 148.333 49.0377 148.333 48.2679 147L8.43078 78C7.66098 76.6667 8.62323 75 10.1628 75L89.8372 75C91.3768 75 92.339 76.6667 91.5692 78L51.7321 147Z" fill="#A2B6F6"/>
<circle cx="49.5" cy="50.5" r="42.5" fill="white"/>
<circle cx="50" cy="50" r="30" fill="#A2B6F6"/>
<path d="M49.1204 61.072C48.0164 61.072 46.9484 60.952 45.9164 60.712C44.9084 60.448 43.9844 59.944 43.1444 59.2C42.8324 58.912 42.5324 58.588 42.2444 58.228C41.9804 57.844 41.7884 57.472 41.6684 57.112C41.5724 56.728 41.5844 56.356 41.7044 55.996C41.8244 55.612 42.1244 55.276 42.6044 54.988C42.9164 54.796 43.1924 54.7 43.4324 54.7C43.6964 54.7 43.9364 54.76 44.1524 54.88C44.3924 55 44.6084 55.168 44.8004 55.384C45.0164 55.576 45.2324 55.768 45.4484 55.96C46.0004 56.416 46.5884 56.716 47.2124 56.86C47.8604 57.004 48.5324 57.076 49.2284 57.076C50.0204 57.076 50.7524 56.884 51.4244 56.5C52.0964 56.116 52.6604 55.612 53.1164 54.988C53.5964 54.364 53.9444 53.656 54.1604 52.864C54.3764 52.072 54.4244 51.28 54.3044 50.488C53.6084 50.896 52.8164 51.22 51.9284 51.46C51.0404 51.676 50.1884 51.784 49.3724 51.784C48.0764 51.784 46.9004 51.604 45.8444 51.244C44.8124 50.86 43.9244 50.332 43.1804 49.66C42.4364 48.964 41.8604 48.124 41.4524 47.14C41.0444 46.156 40.8404 45.064 40.8404 43.864C40.8404 42.616 41.0564 41.464 41.4884 40.408C41.9204 39.328 42.5324 38.404 43.3244 37.636C44.1164 36.844 45.0644 36.232 46.1684 35.8C47.2724 35.344 48.4964 35.116 49.8404 35.116C51.3764 35.116 52.6604 35.344 53.6924 35.8C54.7484 36.232 55.7084 36.892 56.5724 37.78C57.4604 38.716 58.1084 39.94 58.5164 41.452C58.9484 42.964 59.1644 44.956 59.1644 47.428C59.1644 49.444 58.9364 51.292 58.4804 52.972C58.0484 54.652 57.4124 56.092 56.5724 57.292C55.7324 58.492 54.6764 59.428 53.4044 60.1C52.1564 60.748 50.7284 61.072 49.1204 61.072ZM49.9484 39.472C49.5164 39.448 49.0844 39.472 48.6524 39.544C48.2444 39.592 47.8724 39.676 47.5364 39.796C46.8884 40.06 46.3724 40.492 45.9884 41.092C45.6044 41.668 45.3644 42.304 45.2684 43C45.1724 43.696 45.2204 44.392 45.4124 45.088C45.6284 45.784 46.0004 46.36 46.5284 46.816C46.9844 47.248 47.5244 47.536 48.1484 47.68C48.7724 47.824 49.3964 47.86 50.0204 47.788C50.6684 47.716 51.2804 47.536 51.8564 47.248C52.4324 46.96 52.9124 46.588 53.2964 46.132C53.6804 45.676 53.9324 45.196 54.0524 44.692C54.1964 44.164 54.2204 43.648 54.1244 43.144C54.0524 42.616 53.8844 42.124 53.6204 41.668C53.3564 41.188 53.0324 40.768 52.6484 40.408C52.3124 40.144 51.9044 39.94 51.4244 39.796C50.9684 39.628 50.4764 39.52 49.9484 39.472Z" fill="white"/>
</svg>
