<svg width="16" height="17" viewBox="0 0 16 17" fill="none" xmlns="http://www.w3.org/2000/svg">
<path d="M8.00038 5.5625C6.46359 5.5625 5.21777 6.80831 5.21777 8.3451C5.21777 9.88189 6.46359 11.1277 8.00038 11.1277C9.53717 11.1277 10.783 9.88189 10.783 8.3451C10.783 6.80831 9.53717 5.5625 8.00038 5.5625ZM6.60907 8.3451C6.60907 7.57671 7.23197 6.9538 8.00038 6.9538C8.76876 6.9538 9.39168 7.57671 9.39168 8.3451C9.39168 9.11349 8.76876 9.7364 8.00038 9.7364C7.23197 9.7364 6.60907 9.11349 6.60907 8.3451Z" fill="#efefef"/>
<path d="M11.6424 3.33409C11.1068 3.43137 10.5933 3.07781 10.4956 2.5444L10.1342 0.574621C10.0983 0.378879 9.94726 0.224083 9.7518 0.182678C9.18006 0.0615789 8.59386 0 7.99998 0C7.40575 0 6.81919 0.0616624 6.24713 0.1829C6.05161 0.224347 5.90057 0.379227 5.86474 0.575053L5.50439 2.54448C5.49481 2.59685 5.48092 2.64843 5.4629 2.69864C5.27966 3.20923 4.7154 3.47523 4.20259 3.29276L2.31116 2.61937C2.12317 2.55244 1.91319 2.60502 1.77935 2.75252C0.987895 3.62481 0.388063 4.65408 0.0239321 5.77539C-0.0374938 5.96456 0.0217339 6.17195 0.173942 6.30062L1.70704 7.59666C1.74784 7.63115 1.78576 7.66891 1.82042 7.70955C2.17289 8.12286 2.12213 8.74242 1.70703 9.09338L0.173942 10.3894C0.0217339 10.5181 -0.0374938 10.7255 0.0239321 10.9146C0.388063 12.0359 0.987895 13.0652 1.77935 13.9376C1.91319 14.085 2.12317 14.1376 2.31116 14.0707L4.20268 13.3972C4.25303 13.3794 4.30483 13.3655 4.3575 13.3559C4.89322 13.2586 5.40671 13.6121 5.50441 14.1456L5.86474 16.115C5.90057 16.3108 6.05161 16.4657 6.24713 16.5072C6.81919 16.6283 7.40575 16.69 7.99998 16.69C8.59386 16.69 9.18006 16.6285 9.7518 16.5073C9.94726 16.466 10.0983 16.3111 10.1342 16.1154L10.4955 14.1457C10.5052 14.0931 10.519 14.0416 10.5371 13.9914C10.7203 13.4808 11.2846 13.2148 11.7974 13.3972L13.6887 14.0707C13.8768 14.1376 14.0868 14.085 14.2206 13.9376C15.0121 13.0652 15.6119 12.0359 15.976 10.9146C16.0375 10.7255 15.9783 10.5181 15.8261 10.3894L14.293 9.09336C14.2521 9.05887 14.2142 9.02111 14.1796 8.98046C13.827 8.56714 13.8778 7.94758 14.293 7.59664L15.8261 6.30062C15.9783 6.17195 16.0375 5.96456 15.976 5.77539C15.6119 4.65408 15.0121 3.62481 14.2206 2.75252C14.0868 2.60502 13.8768 2.55244 13.6887 2.61937L11.7973 3.29279C11.7469 3.3107 11.6951 3.32453 11.6424 3.33409ZM2.43287 4.13955L3.73595 4.60347C4.96718 5.04157 6.32864 4.40514 6.77242 3.16862C6.81603 3.04712 6.84971 2.92194 6.87297 2.79489L7.11982 1.44581C7.40965 1.40962 7.70341 1.3913 7.99998 1.3913C8.29633 1.3913 8.58985 1.4096 8.87948 1.44573L9.12709 2.79543C9.3642 4.08882 10.6054 4.93645 11.891 4.70301C12.0176 4.68002 12.1426 4.64668 12.2639 4.60351L13.5671 4.13955C13.9219 4.60366 14.2169 5.10998 14.4444 5.64686L13.3946 6.53418C12.3918 7.38213 12.2678 8.88282 13.1209 9.88325C13.2046 9.98139 13.2962 10.0726 13.3948 10.1559L14.4444 11.0432C14.2169 11.58 13.9219 12.0863 13.5671 12.5504L12.2638 12.0864C11.0326 11.6483 9.67133 12.2848 9.22754 13.5214C9.18392 13.6429 9.15027 13.7681 9.12699 13.8951L8.87948 15.2443C8.58985 15.2805 8.29633 15.2987 7.99998 15.2987C7.70341 15.2987 7.40965 15.2805 7.11982 15.2441L6.87295 13.895C6.63602 12.6014 5.39467 11.7535 4.10893 11.987C3.98228 12.0101 3.85738 12.0433 3.73603 12.0866L2.43287 12.5504C2.07801 12.0863 1.78311 11.58 1.55567 11.0432L2.60531 10.1558C3.60824 9.30789 3.73222 7.8072 2.87906 6.80677C2.79536 6.70862 2.70375 6.6174 2.60527 6.53415L1.55567 5.64686C1.78311 5.10998 2.07801 4.60366 2.43287 4.13955Z" fill="#efefef"/>
</svg>
