<svg width="16" height="16" viewBox="0 0 16 16" fill="none" xmlns="http://www.w3.org/2000/svg">
<path d="M7.26136 3.88149C7.48451 4.10465 7.48449 4.46645 7.26134 4.68961L5.26134 6.6895C5.04529 6.90555 4.69752 6.91341 4.47192 6.70737L3.61478 5.92451C3.38175 5.71169 3.36539 5.35025 3.57821 5.11722C3.79104 4.88419 4.15248 4.86782 4.38551 5.08065L4.83941 5.49522L6.45324 3.88147C6.6764 3.65832 7.03821 3.65833 7.26136 3.88149Z" fill="#efefef"/>
<path d="M7.26134 10.4042C7.48449 10.181 7.48451 9.81921 7.26136 9.59612C7.03821 9.37292 6.6764 9.37293 6.45324 9.59601L4.83941 11.2098L4.38551 10.7952C4.15248 10.5824 3.79104 10.5988 3.57821 10.8318C3.36539 11.0648 3.38175 11.4263 3.61478 11.6391L4.47192 12.422C4.69752 12.628 5.04529 12.6201 5.26134 12.4041L7.26134 10.4042Z" fill="#efefef"/>
<path d="M8.57129 10.8573C8.57129 10.5418 8.82717 10.2859 9.14272 10.2859H11.9999C12.3154 10.2859 12.5713 10.5418 12.5713 10.8573C12.5713 11.1729 12.3154 11.4287 11.9999 11.4287H9.14272C8.82717 11.4287 8.57129 11.1729 8.57129 10.8573Z" fill="#efefef"/>
<path d="M9.14272 4.57129C8.82717 4.57129 8.57129 4.82713 8.57129 5.14272C8.57129 5.45831 8.82717 5.71415 9.14272 5.71415H11.9999C12.3154 5.71415 12.5713 5.45831 12.5713 5.14272C12.5713 4.82713 12.3154 4.57129 11.9999 4.57129H9.14272Z" fill="#efefef"/>
<path d="M0 1.71429C0 0.767509 0.767509 0 1.71429 0H14.2857C15.2325 0 16 0.767509 16 1.71429V14.2857C16 15.2325 15.2325 16 14.2857 16H1.71429C0.767509 16 0 15.2325 0 14.2857V1.71429ZM1.71429 1.14286C1.3987 1.14286 1.14286 1.3987 1.14286 1.71429V14.2857C1.14286 14.6013 1.3987 14.8571 1.71429 14.8571H14.2857C14.6013 14.8571 14.8571 14.6013 14.8571 14.2857V1.71429C14.8571 1.3987 14.6013 1.14286 14.2857 1.14286H1.71429Z" fill="#efefef"/>
</svg>
