<svg width="57" height="52" viewBox="0 0 57 52" fill="none" xmlns="http://www.w3.org/2000/svg">
<path d="M0.326566 47.4778L25.9785 1.31872C26.8743 -0.293048 29.0738 -0.427362 30.1868 0.915775L30.4616 1.31872L56.1136 47.4778C56.9904 49.0556 56.0047 50.967 54.3099 51.2517L53.872 51.2879H2.56808C0.763043 51.2879 -0.428915 49.4978 0.145496 47.8781L0.326566 47.4778ZM28.2201 7.84354L6.92697 46.1591H49.5132L28.2201 7.84354ZM28.2201 35.2704C29.985 35.2704 31.4158 36.7011 31.4158 38.4661C31.4158 40.231 29.985 41.6617 28.2201 41.6617C26.4551 41.6617 25.0244 40.231 25.0244 38.4661C25.0244 36.7011 26.4551 35.2704 28.2201 35.2704ZM28.2181 20.5283C29.477 20.5293 30.5234 21.4372 30.7396 22.6337L30.7805 23.0947L30.7766 28.2103C30.7755 29.6266 29.6265 30.7738 28.2103 30.7727C26.9514 30.7718 25.905 29.8638 25.6888 28.6674L25.6478 28.2064L25.6518 23.0907C25.6528 21.6745 26.8018 20.5272 28.2181 20.5283Z" fill="#efefef"/>
</svg>
